<?xml version="1.0" encoding="UTF-8" standalone="no"?><svg xmlns="http://www.w3.org/2000/svg" xmlns:xlink="http://www.w3.org/1999/xlink" contentScriptType="application/ecmascript" contentStyleType="text/css" height="469px" preserveAspectRatio="none" style="width:289px;height:469px;" version="1.1" viewBox="0 0 289 469" width="289px" zoomAndPan="magnify"><defs><filter height="300%" id="f966tz1sqahqo" width="300%" x="-1" y="-1"><feGaussianBlur result="blurOut" stdDeviation="2.0"/><feColorMatrix in="blurOut" result="blurOut2" type="matrix" values="0 0 0 0 0 0 0 0 0 0 0 0 0 0 0 0 0 0 .4 0"/><feOffset dx="4.0" dy="4.0" in="blurOut2" result="blurOut3"/><feBlend in="SourceGraphic" in2="blurOut3" mode="normal"/></filter></defs><g><rect fill="#FFFFFF" filter="url(#f966tz1sqahqo)" height="251.8125" style="stroke: #A80036; stroke-width: 1.0;" width="10" x="114.5" y="119.9609"/><rect fill="#FFFFFF" filter="url(#f966tz1sqahqo)" height="30.3516" style="stroke: #A80036; stroke-width: 1.0;" width="10" x="247.5" y="150.3125"/><rect fill="#FFFFFF" filter="url(#f966tz1sqahqo)" height="30.3516" style="stroke: #A80036; stroke-width: 1.0;" width="10" x="247.5" y="211.0156"/><rect fill="#FFFFFF" filter="url(#f966tz1sqahqo)" height="30.3516" style="stroke: #A80036; stroke-width: 1.0;" width="10" x="247.5" y="271.7188"/><rect fill="#FFFFFF" filter="url(#f966tz1sqahqo)" height="30.3516" style="stroke: #A80036; stroke-width: 1.0;" width="10" x="247.5" y="332.4219"/><line style="stroke: #A80036; stroke-width: 1.0; stroke-dasharray: 5.0,5.0;" x1="25" x2="25" y1="87.6094" y2="380.7734"/><line style="stroke: #A80036; stroke-width: 1.0; stroke-dasharray: 5.0,5.0;" x1="119.5" x2="119.5" y1="87.6094" y2="380.7734"/><line style="stroke: #A80036; stroke-width: 1.0; stroke-dasharray: 5.0,5.0;" x1="252.5" x2="252.5" y1="87.6094" y2="380.7734"/><text fill="#000000" font-family="sans-serif" font-size="14" lengthAdjust="spacingAndGlyphs" textLength="29" x="8" y="84.5332">User</text><ellipse cx="25.5" cy="13" fill="#FEFECE" filter="url(#f966tz1sqahqo)" rx="8" ry="8" style="stroke: #A80036; stroke-width: 2.0;"/><path d="M25.5,21 L25.5,48 M12.5,29 L38.5,29 M25.5,48 L12.5,63 M25.5,48 L38.5,63 " fill="none" filter="url(#f966tz1sqahqo)" style="stroke: #A80036; stroke-width: 2.0;"/><text fill="#000000" font-family="sans-serif" font-size="14" lengthAdjust="spacingAndGlyphs" textLength="29" x="8" y="394.3066">User</text><ellipse cx="25.5" cy="407.3828" fill="#FEFECE" filter="url(#f966tz1sqahqo)" rx="8" ry="8" style="stroke: #A80036; stroke-width: 2.0;"/><path d="M25.5,415.3828 L25.5,442.3828 M12.5,423.3828 L38.5,423.3828 M25.5,442.3828 L12.5,457.3828 M25.5,442.3828 L38.5,457.3828 " fill="none" filter="url(#f966tz1sqahqo)" style="stroke: #A80036; stroke-width: 2.0;"/><rect fill="#FEFECE" filter="url(#f966tz1sqahqo)" height="31.6094" style="stroke: #A80036; stroke-width: 1.5;" width="50" x="92.5" y="51"/><text fill="#000000" font-family="sans-serif" font-size="14" lengthAdjust="spacingAndGlyphs" textLength="36" x="99.5" y="72.5332">Client</text><rect fill="#FEFECE" filter="url(#f966tz1sqahqo)" height="31.6094" style="stroke: #A80036; stroke-width: 1.5;" width="50" x="92.5" y="379.7734"/><text fill="#000000" font-family="sans-serif" font-size="14" lengthAdjust="spacingAndGlyphs" textLength="36" x="99.5" y="401.3066">Client</text><rect fill="#FEFECE" filter="url(#f966tz1sqahqo)" height="31.6094" style="stroke: #A80036; stroke-width: 1.5;" width="56" x="222.5" y="51"/><text fill="#000000" font-family="sans-serif" font-size="14" lengthAdjust="spacingAndGlyphs" textLength="42" x="229.5" y="72.5332">Server</text><rect fill="#FEFECE" filter="url(#f966tz1sqahqo)" height="31.6094" style="stroke: #A80036; stroke-width: 1.5;" width="56" x="222.5" y="379.7734"/><text fill="#000000" font-family="sans-serif" font-size="14" lengthAdjust="spacingAndGlyphs" textLength="42" x="229.5" y="401.3066">Server</text><rect fill="#FFFFFF" filter="url(#f966tz1sqahqo)" height="251.8125" style="stroke: #A80036; stroke-width: 1.0;" width="10" x="114.5" y="119.9609"/><rect fill="#FFFFFF" filter="url(#f966tz1sqahqo)" height="30.3516" style="stroke: #A80036; stroke-width: 1.0;" width="10" x="247.5" y="150.3125"/><rect fill="#FFFFFF" filter="url(#f966tz1sqahqo)" height="30.3516" style="stroke: #A80036; stroke-width: 1.0;" width="10" x="247.5" y="211.0156"/><rect fill="#FFFFFF" filter="url(#f966tz1sqahqo)" height="30.3516" style="stroke: #A80036; stroke-width: 1.0;" width="10" x="247.5" y="271.7188"/><rect fill="#FFFFFF" filter="url(#f966tz1sqahqo)" height="30.3516" style="stroke: #A80036; stroke-width: 1.0;" width="10" x="247.5" y="332.4219"/><polygon fill="#A80036" points="102.5,115.9609,112.5,119.9609,102.5,123.9609,106.5,119.9609" style="stroke: #A80036; stroke-width: 1.0;"/><line style="stroke: #A80036; stroke-width: 1.0;" x1="25.5" x2="108.5" y1="119.9609" y2="119.9609"/><text fill="#000000" font-family="sans-serif" font-size="13" lengthAdjust="spacingAndGlyphs" textLength="70" x="32.5" y="115.1045">CheckEmail</text><polygon fill="#A80036" points="235.5,146.3125,245.5,150.3125,235.5,154.3125,239.5,150.3125" style="stroke: #A80036; stroke-width: 1.0;"/><line style="stroke: #A80036; stroke-width: 1.0;" x1="124.5" x2="241.5" y1="150.3125" y2="150.3125"/><text fill="#000000" font-family="sans-serif" font-size="13" lengthAdjust="spacingAndGlyphs" textLength="104" x="131.5" y="145.4561">SendUnsentEmail</text><polygon fill="#A80036" points="135.5,176.6641,125.5,180.6641,135.5,184.6641,131.5,180.6641" style="stroke: #A80036; stroke-width: 1.0;"/><line style="stroke: #A80036; stroke-width: 1.0; stroke-dasharray: 2.0,2.0;" x1="129.5" x2="251.5" y1="180.6641" y2="180.6641"/><text fill="#000000" font-family="sans-serif" font-size="13" lengthAdjust="spacingAndGlyphs" textLength="53" x="141.5" y="175.8076">response</text><polygon fill="#A80036" points="235.5,207.0156,245.5,211.0156,235.5,215.0156,239.5,211.0156" style="stroke: #A80036; stroke-width: 1.0;"/><line style="stroke: #A80036; stroke-width: 1.0;" x1="124.5" x2="241.5" y1="211.0156" y2="211.0156"/><text fill="#000000" font-family="sans-serif" font-size="13" lengthAdjust="spacingAndGlyphs" textLength="89" x="131.5" y="206.1592">DownloadEmail</text><polygon fill="#A80036" points="135.5,237.3672,125.5,241.3672,135.5,245.3672,131.5,241.3672" style="stroke: #A80036; stroke-width: 1.0;"/><line style="stroke: #A80036; stroke-width: 1.0; stroke-dasharray: 2.0,2.0;" x1="129.5" x2="251.5" y1="241.3672" y2="241.3672"/><text fill="#000000" font-family="sans-serif" font-size="13" lengthAdjust="spacingAndGlyphs" textLength="53" x="141.5" y="236.5107">response</text><polygon fill="#A80036" points="235.5,267.7188,245.5,271.7188,235.5,275.7188,239.5,271.7188" style="stroke: #A80036; stroke-width: 1.0;"/><line style="stroke: #A80036; stroke-width: 1.0;" x1="124.5" x2="241.5" y1="271.7188" y2="271.7188"/><text fill="#000000" font-family="sans-serif" font-size="13" lengthAdjust="spacingAndGlyphs" textLength="58" x="131.5" y="266.8623">NewEmail</text><polygon fill="#A80036" points="135.5,298.0703,125.5,302.0703,135.5,306.0703,131.5,302.0703" style="stroke: #A80036; stroke-width: 1.0;"/><line style="stroke: #A80036; stroke-width: 1.0; stroke-dasharray: 2.0,2.0;" x1="129.5" x2="251.5" y1="302.0703" y2="302.0703"/><text fill="#000000" font-family="sans-serif" font-size="13" lengthAdjust="spacingAndGlyphs" textLength="53" x="141.5" y="297.2139">response</text><polygon fill="#A80036" points="235.5,328.4219,245.5,332.4219,235.5,336.4219,239.5,332.4219" style="stroke: #A80036; stroke-width: 1.0;"/><line style="stroke: #A80036; stroke-width: 1.0;" x1="124.5" x2="241.5" y1="332.4219" y2="332.4219"/><text fill="#000000" font-family="sans-serif" font-size="13" lengthAdjust="spacingAndGlyphs" textLength="90" x="131.5" y="327.5654">DeleteOldEmail</text><polygon fill="#A80036" points="135.5,358.7734,125.5,362.7734,135.5,366.7734,131.5,362.7734" style="stroke: #A80036; stroke-width: 1.0;"/><line style="stroke: #A80036; stroke-width: 1.0; stroke-dasharray: 2.0,2.0;" x1="129.5" x2="251.5" y1="362.7734" y2="362.7734"/><text fill="#000000" font-family="sans-serif" font-size="13" lengthAdjust="spacingAndGlyphs" textLength="53" x="141.5" y="357.917">response</text><!--
@startuml
actor User
User -> Client : CheckEmail
activate Client
Client -> Server : SendUnsentEmail
activate Server
Server - ->Client : response
deactivate Server
Client -> Server : DownloadEmail
activate Server
Server - ->Client : response
deactivate Server
Client -> Server : NewEmail
activate Server
Server - ->Client : response
deactivate Server
Client -> Server : DeleteOldEmail
activate Server
Server - ->Client : response
deactivate Server

@enduml

PlantUML version 1.2019.06(Fri May 24 23:10:25 GMT+06:00 2019)
(GPL source distribution)
Java Runtime: Java(TM) SE Runtime Environment
JVM: Java HotSpot(TM) 64-Bit Server VM
Java Version: 1.8.0_181-b13
Operating System: Windows 8.1
OS Version: 6.3
Default Encoding: Cp1251
Language: ru
Country: RU
--></g></svg>